<svg version="1.2" xmlns="http://www.w3.org/2000/svg" viewBox="0 0 50 50" width="50" height="50">
	<title>Layer</title>
	<style>
		.s0 { fill: #444444 } 
	</style>
	<g id="Layer">
		<path id="Layer" class="s0" d="m15.5 23c-1.4 0-2.5-1.1-2.5-2.5 0-1.4 1.1-2.5 2.5-2.5 1.4 0 2.5 1.1 2.5 2.5 0 1.4-1.1 2.5-2.5 2.5z"/>
		<path id="Layer" class="s0" d="m25.5 23c-1.4 0-2.5-1.1-2.5-2.5 0-1.4 1.1-2.5 2.5-2.5 1.4 0 2.5 1.1 2.5 2.5 0 1.4-1.1 2.5-2.5 2.5z"/>
		<path id="Layer" class="s0" d="m35.5 23c-1.4 0-2.5-1.1-2.5-2.5 0-1.4 1.1-2.5 2.5-2.5 1.4 0 2.5 1.1 2.5 2.5 0 1.4-1.1 2.5-2.5 2.5z"/>
		<path id="Layer" class="s0" d="m42 4h-34c-3.3 0-6 2.7-6 6v21c0 3.3 2.7 6 6 6h5.5c0.8 0 1.5-0.7 1.5-1.5 0-0.8-0.7-1.5-1.5-1.5h-5.5c-1.7 0-3-1.3-3-3v-21c0-1.7 1.3-3 3-3h34c1.7 0 3 1.3 3 3v21c0 1.7-1.3 3-3 3h-15.1l-9.9 9.9c-0.6 0.6-0.6 1.5 0 2.1 0.3 0.3 0.7 0.4 1.1 0.4 0.4 0 0.8-0.1 1.1-0.4l9.1-9.1h13.7c3.3 0 6-2.7 6-6v-20.9c0-3.3-2.7-6-6-6z"/>
	</g>
</svg>