<svg version="1.2" xmlns="http://www.w3.org/2000/svg" viewBox="0 0 50 50" width="50" height="50">
	<title>Layer</title>
	<style>
		.s0 { fill: #444444 } 
	</style>
	<g id="Layer">
		<path id="Layer" fill-rule="evenodd" class="s0" d="m46.8 34l-3.5 6.1c-0.8 1.3-2.1 2-3.5 2-0.7 0-1.4-0.1-2-0.5l-2.3-1.3c-0.7 0.5-1.5 1-2.4 1.4v2.7c0 2.2-1.8 4-4 4h-7c-2.2 0-4-1.8-4-4v-2.7c-0.8-0.4-1.6-0.9-2.4-1.4l-2.3 1.3c-0.6 0.3-1.3 0.5-2 0.5-1.4 0-2.8-0.7-3.5-2l-3.5-6.1c-1.1-1.9-0.4-4.4 1.5-5.5l2.3-1.4c-0.1-0.5-0.1-0.9-0.1-1.4 0-0.5 0.1-0.9 0.1-1.4l-2.3-1.4c-1.9-1.1-2.6-3.6-1.5-5.5l3.5-6.1c0.8-1.3 2.1-2 3.5-2 0.7 0 1.4 0.1 2 0.5l2.3 1.3c0.7-0.5 1.5-1 2.4-1.4v-2.7c0-2.2 1.8-4 4-4h7c2.2 0 4 1.8 4 4v2.5c0.8 0.4 1.6 0.9 2.4 1.4l2.3-1.3c0.6-0.3 1.3-0.5 2-0.5 1.4 0 2.8 0.7 3.5 2l3.5 6.1c1.1 1.9 0.4 4.4-1.5 5.5l-2.3 1.4c0.1 0.5 0.1 0.9 0.1 1.4 0 0.5-0.1 0.9-0.1 1.4l2.3 1.4c1.9 1.1 2.5 3.5 1.5 5.7zm-2.6-2.2c-0.1-0.1-0.2-0.4-0.5-0.6l-2.3-1.4-1.6-0.9 0.2-1.9c0.1-0.4 0.1-0.8 0.1-1.2 0-0.4-0.1-0.8-0.1-1.2l-0.2-1.9 1.6-0.9 2.3-1.4c0.5-0.3 0.7-0.9 0.4-1.4l-3.5-6.1c-0.2-0.3-0.5-0.5-0.9-0.5-0.2 0-0.3 0-0.5 0.1l-2.3 1.3-1.6 0.9-1.6-1.1c-0.6-0.5-1.3-0.8-2-1.2l-1.7-0.8v-4.6c0-0.6-0.4-1-1-1h-7c-0.6 0-1 0.4-1 1v4.2l-1.7 0.8c-0.7 0.4-1.4 0.8-2 1.2l-1.6 1.1-1.6-0.9-2.3-1.3c-0.2-0.1-0.3-0.1-0.5-0.1-0.4 0-0.7 0.2-0.9 0.5l-3.5 6.1c-0.2 0.5-0.1 1.1 0.4 1.4l2.3 1.4 1.6 0.9-0.2 1.9c-0.1 0.4-0.1 0.8-0.1 1.2 0 0.4 0.1 0.8 0.1 1.2l0.2 1.9-1.6 0.9-2.3 1.4c-0.3 0.2-0.5 0.4-0.5 0.6 0 0.2-0.1 0.5 0.1 0.8l3.5 6.1c0.2 0.3 0.5 0.5 0.9 0.5 0.2 0 0.3 0 0.5-0.1l2.3-1.3 1.6-0.9 1.6 1.1c0.6 0.5 1.3 0.8 2 1.2l1.7 0.8v4.6c0 0.6 0.4 1 1 1h7c0.6 0 1-0.4 1-1v-4.6l1.7-0.8c0.7-0.4 1.4-0.8 2-1.2l1.6-1.1 1.6 0.9 2.3 1.3c0.2 0.1 0.3 0.1 0.5 0.1 0.4 0 0.7-0.2 0.9-0.5l3.5-6.1c0.2-0.3 0.2-0.3 0.1-0.4z"/>
		<path id="Layer" fill-rule="evenodd" class="s0" d="m33 25.5c0 4.1-3.4 7.5-7.5 7.5-4.1 0-7.5-3.4-7.5-7.5 0-4.1 3.4-7.5 7.5-7.5 4.1 0 7.5 3.4 7.5 7.5zm-3 0c0-2.5-2-4.5-4.5-4.5-2.5 0-4.5 2-4.5 4.5 0 2.5 2 4.5 4.5 4.5 2.5 0 4.5-2 4.5-4.5z"/>
	</g>
</svg>