<svg version="1.2" xmlns="http://www.w3.org/2000/svg" viewBox="0 0 50 50" width="50" height="50">
	<title>Layer</title>
	<style>
		.s0 { fill: #444444 } 
	</style>
	<path id="Layer" fill-rule="evenodd" class="s0" d="m47.5 45.5c0 0.8-0.7 1.5-1.5 1.5-0.8 0-1.5-0.7-1.5-1.5-0.2-10.2-8.8-18.5-19-18.5-10.2 0-18.8 8.3-19 18.5 0 0.9-0.7 1.5-1.5 1.5-0.9 0-1.5-0.7-1.5-1.5 0.2-9.5 6.6-17.6 15.3-20.4-3.5-2.3-5.8-6.2-5.8-10.6 0-6.9 5.6-12.5 12.5-12.5 6.9 0 12.5 5.6 12.5 12.5 0 4.5-2.3 8.4-5.8 10.6 8.6 2.8 15.1 10.8 15.3 20.4zm-22-21.5c5.2 0 9.5-4.3 9.5-9.5 0-5.2-4.3-9.5-9.5-9.5-5.2 0-9.5 4.3-9.5 9.5 0 5.2 4.3 9.5 9.5 9.5z"/>
</svg>